<?xml version="1.0" encoding="utf-8"?>
<!-- Generator: Adobe Illustrator 16.0.0, SVG Export Plug-In . SVG Version: 6.00 Build 0)  -->
<!DOCTYPE svg PUBLIC "-//W3C//DTD SVG 1.1//EN" "http://www.w3.org/Graphics/SVG/1.1/DTD/svg11.dtd">
<svg version="1.1" xmlns="http://www.w3.org/2000/svg" xmlns:xlink="http://www.w3.org/1999/xlink" x="0px" y="0px"
	 width="376.333px" height="68px" viewBox="0 0 376.333 68" enable-background="new 0 0 376.333 68" xml:space="preserve">
<g id="Layer_1">
	<path fill="#000100" d="M110.986,49.599v15.227h-10.613V12.531H119.6c12.305,0,18.611,5.999,18.611,18.149
		s-6.306,18.918-18.611,18.918H110.986z M119.522,40.525c5.307,0,7.921-3.23,7.921-9.844c0-6.537-2.615-9.075-7.921-9.075h-8.536
		v18.919H119.522z"/>
	<path fill="#000100" d="M145.146,26.374h10.229v4.077c0,0,6.46-3.846,12.305-5v10.382c-6.768,1.307-12.228,3.23-12.228,3.23v25.762
		h-10.305V26.374z"/>
	<path fill="#000100" d="M174.062,10.993h10.305v10.459h-10.305V10.993z M174.062,26.374h10.305v38.452h-10.305V26.374z"/>
	<path fill="#000100" d="M210.898,10.993h38.452v2.615h-17.766v51.218h-2.77V13.608h-17.917V10.993z"/>
	<path fill="#000100" d="M249.665,26.374h2.691v5.999c0,0,6.768-5.153,15.227-6.768v2.769c-7.536,1.538-15.227,6.536-15.227,6.536
		v29.916h-2.691V26.374z"/>
	<path fill="#000100" d="M301.958,59.828c0.23,2.23,3.076,2.998,5.768,3.23l-0.152,2.383c-3.307,0-6.23-0.845-7.921-3.23
		c0,0-7.845,3.309-15.536,3.309c-6.305,0-10.073-3.77-10.073-11.229c0-6.537,3.076-10.305,10.612-11.074l14.612-1.539v-3.998
		c0-6.691-2.923-9.382-8.536-9.382c-5.614,0-14.535,1.307-14.535,1.307l-0.23-2.537c0,0,8.613-1.385,14.766-1.385
		c7.766,0,11.227,4.076,11.227,11.998V59.828z M284.962,45.599c-5.997,0.615-8.073,3.385-8.073,8.691
		c0,5.613,2.614,8.768,7.306,8.768c7.229,0,15.073-3.154,15.073-3.154V44.138L284.962,45.599z"/>
	<path fill="#000100" d="M316.108,64.826V8.686h2.691v33.915h7.383l13.229-16.227h3.23l-14.15,17.379l14.766,21.072h-3.23
		l-13.844-19.764H318.8v19.764H316.108z"/>
	<path fill="#000100" d="M357.759,28.835v20.149c0,11.459,0.846,14.15,7.076,14.15c2.152,0,7.537-0.615,7.537-0.615l0.23,2.461
		c0,0-5.076,0.615-7.768,0.615c-6.998,0-9.767-2.615-9.767-13.689V28.835h-6.075v-2.461h6.075V13.838h2.69v12.536h13.998v2.461
		H357.759z"/>
</g>
<g id="Layer_2">
	<polygon fill="#FCEA0D" points="35.444,1.27 3.863,12.031 3.863,53.847 35.455,64.867 65.182,54.049 65.182,12.232 	"/>
	<path d="M58.579,11.883c-0.457-2.169-4.374-3.638-4.811-3.783L35.444,1.27l-7.777,2.619v6.655l12.845,4.852
		c-0.296,0.081-0.566,0.156-0.82,0.217c-1.199,0.286-3.809,0.392-5.176,0.392c-4.107,0-7.341-1.156-7.374-1.167L11.791,9.279
		L3.667,11.99v41.869l7.804,2.631l7.196-2.214V26.349c2,0.551,3.266,1.05,4.235,1.324c3.429,0.968,6.542,1.522,9.538,1.695
		c1.8,0.103,3.183,0.127,4.242,0.075c2.979-0.15,5.57-0.382,8.552-1.025c3.386-0.73,8.068-1.988,10.722-3.83
		c1.402-0.973,2.711-1.892,2.711-4.402v-7.852C58.667,12.068,58.589,11.933,58.579,11.883z M28.667,9.859V4.593l0.073-0.017
		l15.065,5.458c0.787,0.255,2.886,1.138,3.126,2.143c0.067,0.285-0.543,0.929-1.215,1.277c-1.099,0.571-2.429,1.073-3.645,1.472
		L28.667,9.859z M17.667,53.552l-6,1.908V24.012c1,0.386,4,1.22,6,2.016V53.552z M57.667,19.499c0,0,0.057,1.103-0.078,1.709
		c-0.279,1.254-1.153,1.789-2.273,2.566c-2.651,1.841-7.585,3.093-10.284,3.674c-2.917,0.629-5.47,0.857-8.402,1.005
		c-1.022,0.051-2.376,0.026-4.142-0.075c-2.923-0.168-5.979-0.711-9.338-1.659c-2.979-0.841-11.795-3.837-11.884-3.867l-0.598-0.221
		v32.469l-6-1.947V13.28l18.115,6.095c0.284,0.083,7.116,2.026,13.477,1.694c4.275-0.225,7.22-0.536,8.959-0.952l0.156-0.035
		c2.913-0.694,9.002-2.354,11.223-4.332c0.12-0.106,0.709-0.549,1.07-0.946V19.499z"/>
	<g>
		<rect x="10.881" y="35.608" transform="matrix(0.9584 0.2853 -0.2853 0.9584 10.7808 -2.6618)" width="7.291" height="0.131"/>
		<rect x="10.881" y="32.873" transform="matrix(0.9584 0.2853 -0.2853 0.9584 10.0029 -2.7757)" width="7.291" height="0.132"/>
		<rect x="10.881" y="30.138" transform="matrix(0.9584 0.2853 -0.2853 0.9584 9.2203 -2.8891)" width="7.291" height="0.132"/>
		<rect x="10.881" y="27.403" transform="matrix(0.9584 0.2853 -0.2853 0.9584 8.4419 -3.0032)" width="7.291" height="0.131"/>
		<rect x="10.881" y="46.548" transform="matrix(0.9585 0.2852 -0.2852 0.9585 13.8957 -2.2071)" width="7.291" height="0.132"/>
		<rect x="10.881" y="43.814" transform="matrix(0.9585 0.2852 -0.2852 0.9585 13.1158 -2.3206)" width="7.291" height="0.131"/>
		<rect x="10.881" y="41.078" transform="matrix(0.9584 0.2853 -0.2853 0.9584 12.3414 -2.4345)" width="7.291" height="0.132"/>
		<rect x="10.881" y="38.343" transform="matrix(0.9585 0.285 -0.285 0.9585 11.5505 -2.5474)" width="7.291" height="0.132"/>
		<rect x="10.944" y="54.324" transform="matrix(0.9584 0.2855 -0.2855 0.9584 16.073 -1.471)" width="4.276" height="0.132"/>
		<rect x="10.881" y="52.018" transform="matrix(0.9585 0.285 -0.285 0.9585 15.4486 -1.98)" width="7.291" height="0.132"/>
		<rect x="10.881" y="49.284" transform="matrix(0.9584 0.2853 -0.2853 0.9584 14.6823 -2.0935)" width="7.291" height="0.131"/>
		<rect x="10.881" y="36.928" transform="matrix(0.9584 0.2853 -0.2853 0.9584 11.1573 -2.6069)" width="7.291" height="0.132"/>
		<rect x="10.881" y="34.193" transform="matrix(0.9585 0.2852 -0.2852 0.9585 10.3748 -2.7203)" width="7.291" height="0.132"/>
		<rect x="10.881" y="31.458" transform="matrix(0.9584 0.2853 -0.2853 0.9584 9.5991 -2.8346)" width="7.291" height="0.132"/>
		<rect x="10.881" y="28.723" transform="matrix(0.9584 0.2853 -0.2853 0.9584 8.8186 -2.9483)" width="7.291" height="0.131"/>
		<rect x="10.881" y="47.95" transform="matrix(0.9585 0.2852 -0.2852 0.9585 14.2956 -2.1488)" width="7.291" height="0.132"/>
		<rect x="10.881" y="45.134" transform="matrix(0.9584 0.2853 -0.2853 0.9584 13.4983 -2.2659)" width="7.291" height="0.131"/>
		<rect x="10.881" y="42.398" transform="matrix(0.9584 0.2853 -0.2853 0.9584 12.718 -2.3796)" width="7.291" height="0.132"/>
		<rect x="10.881" y="39.663" transform="matrix(0.9585 0.2852 -0.2852 0.9585 11.9323 -2.4929)" width="7.291" height="0.131"/>
		<rect x="10.881" y="53.339" transform="matrix(0.9585 0.2852 -0.2852 0.9585 15.8321 -1.9251)" width="7.291" height="0.131"/>
		<rect x="10.881" y="50.602" transform="matrix(0.9585 0.285 -0.285 0.9585 15.045 -2.0388)" width="7.291" height="0.132"/>
		<rect x="10.882" y="26.048" transform="matrix(0.9585 0.2852 -0.2852 0.9585 8.0516 -3.0587)" width="7.291" height="0.132"/>
		<rect x="10.986" y="55.205" transform="matrix(0.9586 0.2847 -0.2847 0.9586 16.2401 -1.1638)" width="2.274" height="0.131"/>
	</g>
	<g>
		<rect x="50.544" y="44.212" width="0.99" height="9.727"/>
		<rect x="57.461" y="46.658" width="0.99" height="9.234"/>
		<polygon points="57.949,56.646 50.548,53.933 50.871,52.998 57.962,55.604 64.188,53.302 64.188,44.431 65.178,44.431 
			65.178,54.027 		"/>
		<polygon points="58.05,41.453 50.544,44.215 58.04,46.972 65.182,44.441 		"/>
	</g>
</g>
</svg>
